<mxfile host="app.diagrams.net" modified="2023-07-10T22:08:16.880Z" agent="Mozilla/5.0 (Macintosh; Intel Mac OS X 10_15_7) AppleWebKit/605.1.15 (KHTML, like Gecko) Version/16.5.1 Safari/605.1.15" etag="YlPo9F-sbyj1kRgNmlm0" version="21.6.1" type="google" pages="4">
  <diagram id="OhxBS4iWR5WVcps4PUAc" name="EJ2">
    <mxGraphModel grid="1" page="1" gridSize="10" guides="1" tooltips="1" connect="1" arrows="1" fold="1" pageScale="1" pageWidth="827" pageHeight="1169" math="0" shadow="0">
      <root>
        <mxCell id="0" />
        <mxCell id="1" parent="0" />
        <mxCell id="9YczjDrWe7ewCyXVETBQ-1" value="1" style="edgeStyle=orthogonalEdgeStyle;rounded=0;orthogonalLoop=1;jettySize=auto;html=1;exitX=0.5;exitY=1;exitDx=0;exitDy=0;" edge="1" parent="1" source="9YczjDrWe7ewCyXVETBQ-7" target="9YczjDrWe7ewCyXVETBQ-8">
          <mxGeometry relative="1" as="geometry" />
        </mxCell>
        <mxCell id="9YczjDrWe7ewCyXVETBQ-2" value="2" style="edgeStyle=orthogonalEdgeStyle;rounded=0;orthogonalLoop=1;jettySize=auto;html=1;exitX=0.5;exitY=1;exitDx=0;exitDy=0;" edge="1" parent="1" source="9YczjDrWe7ewCyXVETBQ-7" target="9YczjDrWe7ewCyXVETBQ-9">
          <mxGeometry relative="1" as="geometry">
            <Array as="points">
              <mxPoint x="430" y="530" />
              <mxPoint x="160" y="530" />
            </Array>
          </mxGeometry>
        </mxCell>
        <mxCell id="9YczjDrWe7ewCyXVETBQ-3" value="3" style="edgeStyle=orthogonalEdgeStyle;rounded=0;orthogonalLoop=1;jettySize=auto;html=1;" edge="1" parent="1" source="9YczjDrWe7ewCyXVETBQ-7" target="9YczjDrWe7ewCyXVETBQ-10">
          <mxGeometry relative="1" as="geometry" />
        </mxCell>
        <mxCell id="9YczjDrWe7ewCyXVETBQ-4" value="4" style="edgeStyle=orthogonalEdgeStyle;rounded=0;orthogonalLoop=1;jettySize=auto;html=1;" edge="1" parent="1" source="9YczjDrWe7ewCyXVETBQ-7" target="9YczjDrWe7ewCyXVETBQ-11">
          <mxGeometry relative="1" as="geometry" />
        </mxCell>
        <mxCell id="9YczjDrWe7ewCyXVETBQ-5" value="20" style="edgeStyle=orthogonalEdgeStyle;rounded=0;orthogonalLoop=1;jettySize=auto;html=1;" edge="1" parent="1" source="9YczjDrWe7ewCyXVETBQ-7" target="9YczjDrWe7ewCyXVETBQ-13">
          <mxGeometry relative="1" as="geometry">
            <Array as="points">
              <mxPoint x="430" y="510" />
              <mxPoint x="787" y="510" />
            </Array>
          </mxGeometry>
        </mxCell>
        <mxCell id="9YczjDrWe7ewCyXVETBQ-6" value="5" style="edgeStyle=orthogonalEdgeStyle;rounded=0;orthogonalLoop=1;jettySize=auto;html=1;" edge="1" parent="1" source="9YczjDrWe7ewCyXVETBQ-7" target="9YczjDrWe7ewCyXVETBQ-12">
          <mxGeometry relative="1" as="geometry" />
        </mxCell>
        <mxCell id="9YczjDrWe7ewCyXVETBQ-7" value="&lt;ol style=&quot;margin-top: 0px; margin-bottom: 0px; padding-inline-start: 48px;&quot;&gt;&lt;li style=&quot;text-align: left; list-style-type: decimal; font-size: 11pt; font-family: &amp;quot;Roboto Mono&amp;quot;, monospace; font-variant-ligatures: normal; font-variant-alternates: normal; font-variant-numeric: normal; font-variant-east-asian: normal; font-variant-position: normal; vertical-align: baseline;&quot; aria-level=&quot;1&quot; dir=&quot;ltr&quot;&gt;Toyota Camry&lt;p style=&quot;line-height: 1.38; text-align: justify; margin-top: 0pt; margin-bottom: 0pt;&quot; role=&quot;presentation&quot; dir=&quot;ltr&quot;&gt;&lt;/p&gt;&lt;/li&gt;&lt;li style=&quot;list-style-type: decimal; font-size: 11pt; font-family: &amp;quot;Roboto Mono&amp;quot;, monospace; font-variant-ligatures: normal; font-variant-alternates: normal; font-variant-numeric: normal; font-variant-east-asian: normal; font-variant-position: normal; vertical-align: baseline;&quot; aria-level=&quot;1&quot; dir=&quot;ltr&quot;&gt;&lt;p style=&quot;line-height: 1.38; text-align: justify; margin-top: 0pt; margin-bottom: 0pt;&quot; role=&quot;presentation&quot; dir=&quot;ltr&quot;&gt;&lt;span style=&quot;font-size: 11pt; font-variant-ligatures: normal; font-variant-alternates: normal; font-variant-numeric: normal; font-variant-east-asian: normal; font-variant-position: normal; vertical-align: baseline;&quot;&gt;Ford Mustang&lt;/span&gt;&lt;/p&gt;&lt;/li&gt;&lt;li style=&quot;list-style-type: decimal; font-size: 11pt; font-family: &amp;quot;Roboto Mono&amp;quot;, monospace; font-variant-ligatures: normal; font-variant-alternates: normal; font-variant-numeric: normal; font-variant-east-asian: normal; font-variant-position: normal; vertical-align: baseline;&quot; aria-level=&quot;1&quot; dir=&quot;ltr&quot;&gt;&lt;p style=&quot;line-height: 1.38; text-align: justify; margin-top: 0pt; margin-bottom: 0pt;&quot; role=&quot;presentation&quot; dir=&quot;ltr&quot;&gt;&lt;span style=&quot;font-size: 11pt; font-variant-ligatures: normal; font-variant-alternates: normal; font-variant-numeric: normal; font-variant-east-asian: normal; font-variant-position: normal; vertical-align: baseline;&quot;&gt;Honda Civic&lt;/span&gt;&lt;/p&gt;&lt;/li&gt;&lt;li style=&quot;list-style-type: decimal; font-size: 11pt; font-family: &amp;quot;Roboto Mono&amp;quot;, monospace; font-variant-ligatures: normal; font-variant-alternates: normal; font-variant-numeric: normal; font-variant-east-asian: normal; font-variant-position: normal; vertical-align: baseline;&quot; aria-level=&quot;1&quot; dir=&quot;ltr&quot;&gt;&lt;p style=&quot;line-height: 1.38; text-align: justify; margin-top: 0pt; margin-bottom: 0pt;&quot; role=&quot;presentation&quot; dir=&quot;ltr&quot;&gt;&lt;span style=&quot;font-size: 11pt; font-variant-ligatures: normal; font-variant-alternates: normal; font-variant-numeric: normal; font-variant-east-asian: normal; font-variant-position: normal; vertical-align: baseline;&quot;&gt;Chevrolet Corvette&lt;/span&gt;&lt;/p&gt;&lt;/li&gt;&lt;li style=&quot;list-style-type: decimal; font-size: 11pt; font-family: &amp;quot;Roboto Mono&amp;quot;, monospace; font-variant-ligatures: normal; font-variant-alternates: normal; font-variant-numeric: normal; font-variant-east-asian: normal; font-variant-position: normal; vertical-align: baseline;&quot; aria-level=&quot;1&quot; dir=&quot;ltr&quot;&gt;&lt;p style=&quot;line-height: 1.38; text-align: justify; margin-top: 0pt; margin-bottom: 0pt;&quot; role=&quot;presentation&quot; dir=&quot;ltr&quot;&gt;&lt;span style=&quot;font-size: 11pt; font-variant-ligatures: normal; font-variant-alternates: normal; font-variant-numeric: normal; font-variant-east-asian: normal; font-variant-position: normal; vertical-align: baseline;&quot;&gt;BMW 3 Series&lt;/span&gt;&lt;/p&gt;&lt;/li&gt;&lt;li style=&quot;list-style-type: decimal; font-size: 11pt; font-family: &amp;quot;Roboto Mono&amp;quot;, monospace; font-variant-ligatures: normal; font-variant-alternates: normal; font-variant-numeric: normal; font-variant-east-asian: normal; font-variant-position: normal; vertical-align: baseline;&quot; aria-level=&quot;1&quot; dir=&quot;ltr&quot;&gt;&lt;p style=&quot;line-height: 1.38; text-align: justify; margin-top: 0pt; margin-bottom: 0pt;&quot; role=&quot;presentation&quot; dir=&quot;ltr&quot;&gt;&lt;span style=&quot;font-size: 11pt; font-variant-ligatures: normal; font-variant-alternates: normal; font-variant-numeric: normal; font-variant-east-asian: normal; font-variant-position: normal; vertical-align: baseline;&quot;&gt;Mercedes-Benz C-Class&lt;/span&gt;&lt;/p&gt;&lt;/li&gt;&lt;li style=&quot;list-style-type: decimal; font-size: 11pt; font-family: &amp;quot;Roboto Mono&amp;quot;, monospace; font-variant-ligatures: normal; font-variant-alternates: normal; font-variant-numeric: normal; font-variant-east-asian: normal; font-variant-position: normal; vertical-align: baseline;&quot; aria-level=&quot;1&quot; dir=&quot;ltr&quot;&gt;&lt;p style=&quot;line-height: 1.38; text-align: justify; margin-top: 0pt; margin-bottom: 0pt;&quot; role=&quot;presentation&quot; dir=&quot;ltr&quot;&gt;&lt;span style=&quot;font-size: 11pt; font-variant-ligatures: normal; font-variant-alternates: normal; font-variant-numeric: normal; font-variant-east-asian: normal; font-variant-position: normal; vertical-align: baseline;&quot;&gt;Volkswagen Golf&lt;/span&gt;&lt;/p&gt;&lt;/li&gt;&lt;li style=&quot;list-style-type: decimal; font-size: 11pt; font-family: &amp;quot;Roboto Mono&amp;quot;, monospace; font-variant-ligatures: normal; font-variant-alternates: normal; font-variant-numeric: normal; font-variant-east-asian: normal; font-variant-position: normal; vertical-align: baseline;&quot; aria-level=&quot;1&quot; dir=&quot;ltr&quot;&gt;&lt;p style=&quot;line-height: 1.38; text-align: justify; margin-top: 0pt; margin-bottom: 0pt;&quot; role=&quot;presentation&quot; dir=&quot;ltr&quot;&gt;&lt;span style=&quot;font-size: 11pt; font-variant-ligatures: normal; font-variant-alternates: normal; font-variant-numeric: normal; font-variant-east-asian: normal; font-variant-position: normal; vertical-align: baseline;&quot;&gt;Tesla Model S&lt;/span&gt;&lt;/p&gt;&lt;/li&gt;&lt;li style=&quot;list-style-type: decimal; font-size: 11pt; font-family: &amp;quot;Roboto Mono&amp;quot;, monospace; font-variant-ligatures: normal; font-variant-alternates: normal; font-variant-numeric: normal; font-variant-east-asian: normal; font-variant-position: normal; vertical-align: baseline;&quot; aria-level=&quot;1&quot; dir=&quot;ltr&quot;&gt;&lt;p style=&quot;line-height: 1.38; text-align: justify; margin-top: 0pt; margin-bottom: 0pt;&quot; role=&quot;presentation&quot; dir=&quot;ltr&quot;&gt;&lt;span style=&quot;font-size: 11pt; font-variant-ligatures: normal; font-variant-alternates: normal; font-variant-numeric: normal; font-variant-east-asian: normal; font-variant-position: normal; vertical-align: baseline;&quot;&gt;Audi A4&lt;/span&gt;&lt;/p&gt;&lt;/li&gt;&lt;li style=&quot;list-style-type: decimal; font-size: 11pt; font-family: &amp;quot;Roboto Mono&amp;quot;, monospace; font-variant-ligatures: normal; font-variant-alternates: normal; font-variant-numeric: normal; font-variant-east-asian: normal; font-variant-position: normal; vertical-align: baseline;&quot; aria-level=&quot;1&quot; dir=&quot;ltr&quot;&gt;&lt;p style=&quot;line-height: 1.38; text-align: justify; margin-top: 0pt; margin-bottom: 0pt;&quot; role=&quot;presentation&quot; dir=&quot;ltr&quot;&gt;&lt;span style=&quot;font-size: 11pt; font-variant-ligatures: normal; font-variant-alternates: normal; font-variant-numeric: normal; font-variant-east-asian: normal; font-variant-position: normal; vertical-align: baseline;&quot;&gt;Nissan Rogue&lt;/span&gt;&lt;/p&gt;&lt;/li&gt;&lt;li style=&quot;list-style-type: decimal; font-size: 11pt; font-family: &amp;quot;Roboto Mono&amp;quot;, monospace; font-variant-ligatures: normal; font-variant-alternates: normal; font-variant-numeric: normal; font-variant-east-asian: normal; font-variant-position: normal; vertical-align: baseline;&quot; aria-level=&quot;1&quot; dir=&quot;ltr&quot;&gt;&lt;p style=&quot;line-height: 1.38; text-align: justify; margin-top: 0pt; margin-bottom: 0pt;&quot; role=&quot;presentation&quot; dir=&quot;ltr&quot;&gt;&lt;span style=&quot;font-size: 11pt; font-variant-ligatures: normal; font-variant-alternates: normal; font-variant-numeric: normal; font-variant-east-asian: normal; font-variant-position: normal; vertical-align: baseline;&quot;&gt;Jeep Wrangler&lt;/span&gt;&lt;/p&gt;&lt;/li&gt;&lt;li style=&quot;list-style-type: decimal; font-size: 11pt; font-family: &amp;quot;Roboto Mono&amp;quot;, monospace; font-variant-ligatures: normal; font-variant-alternates: normal; font-variant-numeric: normal; font-variant-east-asian: normal; font-variant-position: normal; vertical-align: baseline;&quot; aria-level=&quot;1&quot; dir=&quot;ltr&quot;&gt;&lt;p style=&quot;line-height: 1.38; text-align: justify; margin-top: 0pt; margin-bottom: 0pt;&quot; role=&quot;presentation&quot; dir=&quot;ltr&quot;&gt;&lt;span style=&quot;font-size: 11pt; font-variant-ligatures: normal; font-variant-alternates: normal; font-variant-numeric: normal; font-variant-east-asian: normal; font-variant-position: normal; vertical-align: baseline;&quot;&gt;Subaru Outback&lt;/span&gt;&lt;/p&gt;&lt;/li&gt;&lt;li style=&quot;list-style-type: decimal; font-size: 11pt; font-family: &amp;quot;Roboto Mono&amp;quot;, monospace; font-variant-ligatures: normal; font-variant-alternates: normal; font-variant-numeric: normal; font-variant-east-asian: normal; font-variant-position: normal; vertical-align: baseline;&quot; aria-level=&quot;1&quot; dir=&quot;ltr&quot;&gt;&lt;p style=&quot;line-height: 1.38; text-align: justify; margin-top: 0pt; margin-bottom: 0pt;&quot; role=&quot;presentation&quot; dir=&quot;ltr&quot;&gt;&lt;span style=&quot;font-size: 11pt; font-variant-ligatures: normal; font-variant-alternates: normal; font-variant-numeric: normal; font-variant-east-asian: normal; font-variant-position: normal; vertical-align: baseline;&quot;&gt;Hyundai Elantra&lt;/span&gt;&lt;/p&gt;&lt;/li&gt;&lt;li style=&quot;list-style-type: decimal; font-size: 11pt; font-family: &amp;quot;Roboto Mono&amp;quot;, monospace; font-variant-ligatures: normal; font-variant-alternates: normal; font-variant-numeric: normal; font-variant-east-asian: normal; font-variant-position: normal; vertical-align: baseline;&quot; aria-level=&quot;1&quot; dir=&quot;ltr&quot;&gt;&lt;p style=&quot;line-height: 1.38; text-align: justify; margin-top: 0pt; margin-bottom: 0pt;&quot; role=&quot;presentation&quot; dir=&quot;ltr&quot;&gt;&lt;span style=&quot;font-size: 11pt; font-variant-ligatures: normal; font-variant-alternates: normal; font-variant-numeric: normal; font-variant-east-asian: normal; font-variant-position: normal; vertical-align: baseline;&quot;&gt;Kia Sportage&lt;/span&gt;&lt;/p&gt;&lt;/li&gt;&lt;li style=&quot;list-style-type: decimal; font-size: 11pt; font-family: &amp;quot;Roboto Mono&amp;quot;, monospace; font-variant-ligatures: normal; font-variant-alternates: normal; font-variant-numeric: normal; font-variant-east-asian: normal; font-variant-position: normal; vertical-align: baseline;&quot; aria-level=&quot;1&quot; dir=&quot;ltr&quot;&gt;&lt;p style=&quot;line-height: 1.38; text-align: justify; margin-top: 0pt; margin-bottom: 0pt;&quot; role=&quot;presentation&quot; dir=&quot;ltr&quot;&gt;&lt;span style=&quot;font-size: 11pt; font-variant-ligatures: normal; font-variant-alternates: normal; font-variant-numeric: normal; font-variant-east-asian: normal; font-variant-position: normal; vertical-align: baseline;&quot;&gt;Mazda CX-5&lt;/span&gt;&lt;/p&gt;&lt;/li&gt;&lt;li style=&quot;list-style-type: decimal; font-size: 11pt; font-family: &amp;quot;Roboto Mono&amp;quot;, monospace; font-variant-ligatures: normal; font-variant-alternates: normal; font-variant-numeric: normal; font-variant-east-asian: normal; font-variant-position: normal; vertical-align: baseline;&quot; aria-level=&quot;1&quot; dir=&quot;ltr&quot;&gt;&lt;p style=&quot;line-height: 1.38; text-align: justify; margin-top: 0pt; margin-bottom: 0pt;&quot; role=&quot;presentation&quot; dir=&quot;ltr&quot;&gt;&lt;span style=&quot;font-size: 11pt; font-variant-ligatures: normal; font-variant-alternates: normal; font-variant-numeric: normal; font-variant-east-asian: normal; font-variant-position: normal; vertical-align: baseline;&quot;&gt;Ford F-150&lt;/span&gt;&lt;/p&gt;&lt;/li&gt;&lt;li style=&quot;list-style-type: decimal; font-size: 11pt; font-family: &amp;quot;Roboto Mono&amp;quot;, monospace; font-variant-ligatures: normal; font-variant-alternates: normal; font-variant-numeric: normal; font-variant-east-asian: normal; font-variant-position: normal; vertical-align: baseline;&quot; aria-level=&quot;1&quot; dir=&quot;ltr&quot;&gt;&lt;p style=&quot;line-height: 1.38; text-align: justify; margin-top: 0pt; margin-bottom: 0pt;&quot; role=&quot;presentation&quot; dir=&quot;ltr&quot;&gt;&lt;span style=&quot;font-size: 11pt; font-variant-ligatures: normal; font-variant-alternates: normal; font-variant-numeric: normal; font-variant-east-asian: normal; font-variant-position: normal; vertical-align: baseline;&quot;&gt;Toyota RAV4&lt;/span&gt;&lt;/p&gt;&lt;/li&gt;&lt;li style=&quot;list-style-type: decimal; font-size: 11pt; font-family: &amp;quot;Roboto Mono&amp;quot;, monospace; font-variant-ligatures: normal; font-variant-alternates: normal; font-variant-numeric: normal; font-variant-east-asian: normal; font-variant-position: normal; vertical-align: baseline;&quot; aria-level=&quot;1&quot; dir=&quot;ltr&quot;&gt;&lt;p style=&quot;line-height: 1.38; text-align: justify; margin-top: 0pt; margin-bottom: 0pt;&quot; role=&quot;presentation&quot; dir=&quot;ltr&quot;&gt;&lt;span style=&quot;font-size: 11pt; font-variant-ligatures: normal; font-variant-alternates: normal; font-variant-numeric: normal; font-variant-east-asian: normal; font-variant-position: normal; vertical-align: baseline;&quot;&gt;Honda Accord&lt;/span&gt;&lt;/p&gt;&lt;/li&gt;&lt;li style=&quot;list-style-type: decimal; font-size: 11pt; font-family: &amp;quot;Roboto Mono&amp;quot;, monospace; font-variant-ligatures: normal; font-variant-alternates: normal; font-variant-numeric: normal; font-variant-east-asian: normal; font-variant-position: normal; vertical-align: baseline;&quot; aria-level=&quot;1&quot; dir=&quot;ltr&quot;&gt;&lt;p style=&quot;line-height: 1.38; text-align: justify; margin-top: 0pt; margin-bottom: 0pt;&quot; role=&quot;presentation&quot; dir=&quot;ltr&quot;&gt;&lt;span style=&quot;font-size: 11pt; font-variant-ligatures: normal; font-variant-alternates: normal; font-variant-numeric: normal; font-variant-east-asian: normal; font-variant-position: normal; vertical-align: baseline;&quot;&gt;Volvo XC90&lt;/span&gt;&lt;/p&gt;&lt;/li&gt;&lt;li style=&quot;list-style-type: decimal; font-size: 11pt; font-family: &amp;quot;Roboto Mono&amp;quot;, monospace; font-variant-ligatures: normal; font-variant-alternates: normal; font-variant-numeric: normal; font-variant-east-asian: normal; font-variant-position: normal; vertical-align: baseline;&quot; aria-level=&quot;1&quot; dir=&quot;ltr&quot;&gt;&lt;p style=&quot;line-height: 1.38; text-align: justify; margin-top: 0pt; margin-bottom: 0pt;&quot; role=&quot;presentation&quot; dir=&quot;ltr&quot;&gt;&lt;span style=&quot;font-size: 11pt; font-variant-ligatures: normal; font-variant-alternates: normal; font-variant-numeric: normal; font-variant-east-asian: normal; font-variant-position: normal; vertical-align: baseline;&quot;&gt;Porsche 911&lt;/span&gt;&lt;/p&gt;&lt;/li&gt;&lt;/ol&gt;&lt;span style=&quot;text-align: start;&quot; id=&quot;docs-internal-guid-6298b9c1-7fff-0c1b-d54a-527b016a27ba&quot;&gt;&lt;/span&gt;" style="whiteSpace=wrap;html=1;aspect=fixed;" vertex="1" parent="1">
          <mxGeometry x="220" y="60" width="420" height="420" as="geometry" />
        </mxCell>
        <mxCell id="9YczjDrWe7ewCyXVETBQ-8" value="1 -&amp;gt; feo&lt;br&gt;2 -&amp;gt; lindo&lt;br&gt;10 -&amp;gt; lindo&lt;br&gt;13 -&amp;gt; feo" style="whiteSpace=wrap;html=1;aspect=fixed;" vertex="1" parent="1">
          <mxGeometry y="540" width="80" height="80" as="geometry" />
        </mxCell>
        <mxCell id="9YczjDrWe7ewCyXVETBQ-9" value="" style="whiteSpace=wrap;html=1;aspect=fixed;" vertex="1" parent="1">
          <mxGeometry x="120" y="640" width="80" height="80" as="geometry" />
        </mxCell>
        <mxCell id="9YczjDrWe7ewCyXVETBQ-10" value="" style="whiteSpace=wrap;html=1;aspect=fixed;" vertex="1" parent="1">
          <mxGeometry x="260" y="660" width="80" height="80" as="geometry" />
        </mxCell>
        <mxCell id="9YczjDrWe7ewCyXVETBQ-11" value="" style="whiteSpace=wrap;html=1;aspect=fixed;" vertex="1" parent="1">
          <mxGeometry x="390" y="750" width="80" height="80" as="geometry" />
        </mxCell>
        <mxCell id="9YczjDrWe7ewCyXVETBQ-12" value="" style="whiteSpace=wrap;html=1;aspect=fixed;" vertex="1" parent="1">
          <mxGeometry x="520" y="690" width="80" height="80" as="geometry" />
        </mxCell>
        <mxCell id="9YczjDrWe7ewCyXVETBQ-13" value="" style="whiteSpace=wrap;html=1;aspect=fixed;" vertex="1" parent="1">
          <mxGeometry x="747" y="540" width="80" height="80" as="geometry" />
        </mxCell>
      </root>
    </mxGraphModel>
  </diagram>
  <diagram id="g6ljjwkV2yYjX7yu6JbW" name="EJ2-borrador">
    <mxGraphModel grid="1" page="1" gridSize="10" guides="1" tooltips="1" connect="1" arrows="1" fold="1" pageScale="1" pageWidth="827" pageHeight="1169" math="0" shadow="0">
      <root>
        <mxCell id="0" />
        <mxCell id="1" parent="0" />
        <mxCell id="abfWdCb7Ru-aJpaVyWjH-1" value="1" style="edgeStyle=orthogonalEdgeStyle;rounded=0;orthogonalLoop=1;jettySize=auto;html=1;" edge="1" parent="1" source="abfWdCb7Ru-aJpaVyWjH-3" target="abfWdCb7Ru-aJpaVyWjH-4">
          <mxGeometry relative="1" as="geometry" />
        </mxCell>
        <mxCell id="abfWdCb7Ru-aJpaVyWjH-2" value="2" style="edgeStyle=orthogonalEdgeStyle;rounded=0;orthogonalLoop=1;jettySize=auto;html=1;" edge="1" parent="1" source="abfWdCb7Ru-aJpaVyWjH-3" target="abfWdCb7Ru-aJpaVyWjH-5">
          <mxGeometry relative="1" as="geometry" />
        </mxCell>
        <mxCell id="abfWdCb7Ru-aJpaVyWjH-3" value="1. lindo&lt;br&gt;2. feo" style="whiteSpace=wrap;html=1;aspect=fixed;" vertex="1" parent="1">
          <mxGeometry x="360" y="60" width="80" height="80" as="geometry" />
        </mxCell>
        <mxCell id="abfWdCb7Ru-aJpaVyWjH-4" value="1 -&amp;gt; toyota camry&lt;br&gt;2 -&amp;gt; honda accord&lt;br&gt;2 -&amp;gt;&amp;nbsp;Subaru Outback&lt;br&gt;...&lt;br&gt;...&lt;br&gt;&lt;div style=&quot;text-align: start;&quot;&gt;10000 -&amp;gt;&amp;nbsp;Tesla Model S&lt;/div&gt;" style="whiteSpace=wrap;html=1;" vertex="1" parent="1">
          <mxGeometry x="110" y="200" width="140" height="700" as="geometry" />
        </mxCell>
        <mxCell id="abfWdCb7Ru-aJpaVyWjH-5" value="1 -&amp;gt; Porsche 911&lt;br&gt;2 -&amp;gt; Porsche 911&lt;br&gt;2 -&amp;gt;&amp;nbsp;Tesla Model S&lt;br&gt;3 -&amp;gt;&amp;nbsp;Tesla Model S" style="whiteSpace=wrap;html=1;" vertex="1" parent="1">
          <mxGeometry x="560" y="200" width="140" height="710" as="geometry" />
        </mxCell>
      </root>
    </mxGraphModel>
  </diagram>
  <diagram name="EJ3" id="Txq51ckRdBIcrP5kBOFp">
    <mxGraphModel grid="1" page="1" gridSize="10" guides="1" tooltips="1" connect="1" arrows="1" fold="1" pageScale="1" pageWidth="827" pageHeight="1169" math="0" shadow="0">
      <root>
        <mxCell id="0" />
        <mxCell id="1" parent="0" />
        <mxCell id="d032DoqeKOKrn0qu93g8-3" value="Y" style="edgeStyle=orthogonalEdgeStyle;rounded=0;orthogonalLoop=1;jettySize=auto;html=1;exitX=0.5;exitY=0;exitDx=0;exitDy=0;entryX=0.5;entryY=0;entryDx=0;entryDy=0;" edge="1" parent="1" source="d032DoqeKOKrn0qu93g8-1" target="d032DoqeKOKrn0qu93g8-2">
          <mxGeometry relative="1" as="geometry" />
        </mxCell>
        <mxCell id="d032DoqeKOKrn0qu93g8-6" value="Z" style="edgeStyle=orthogonalEdgeStyle;rounded=0;orthogonalLoop=1;jettySize=auto;html=1;" edge="1" parent="1" source="d032DoqeKOKrn0qu93g8-1" target="d032DoqeKOKrn0qu93g8-2">
          <mxGeometry relative="1" as="geometry" />
        </mxCell>
        <mxCell id="d032DoqeKOKrn0qu93g8-1" value="&lt;font style=&quot;font-size: 24px;&quot;&gt;T1&lt;/font&gt;" style="ellipse;whiteSpace=wrap;html=1;aspect=fixed;" vertex="1" parent="1">
          <mxGeometry x="140" y="290" width="80" height="80" as="geometry" />
        </mxCell>
        <mxCell id="d032DoqeKOKrn0qu93g8-5" value="X" style="edgeStyle=orthogonalEdgeStyle;rounded=0;orthogonalLoop=1;jettySize=auto;html=1;entryX=0.5;entryY=1;entryDx=0;entryDy=0;exitX=0.5;exitY=1;exitDx=0;exitDy=0;" edge="1" parent="1" source="d032DoqeKOKrn0qu93g8-2" target="d032DoqeKOKrn0qu93g8-1">
          <mxGeometry relative="1" as="geometry" />
        </mxCell>
        <mxCell id="d032DoqeKOKrn0qu93g8-2" value="&lt;font style=&quot;font-size: 24px;&quot;&gt;T2&lt;/font&gt;" style="ellipse;whiteSpace=wrap;html=1;aspect=fixed;" vertex="1" parent="1">
          <mxGeometry x="550" y="290" width="80" height="80" as="geometry" />
        </mxCell>
      </root>
    </mxGraphModel>
  </diagram>
  <diagram id="oR4h2ja1kqj90OqD7ohg" name="EJ5">
    <mxGraphModel grid="1" page="1" gridSize="10" guides="1" tooltips="1" connect="1" arrows="1" fold="1" pageScale="1" pageWidth="827" pageHeight="1169" math="0" shadow="0">
      <root>
        <mxCell id="0" />
        <mxCell id="1" parent="0" />
        <mxCell id="3Sr4pVk2vgEih4nOGjcD-8" value="X" style="edgeStyle=orthogonalEdgeStyle;rounded=0;orthogonalLoop=1;jettySize=auto;html=1;entryX=0;entryY=0.5;entryDx=0;entryDy=0;startArrow=none;startFill=0;endArrow=classic;endFill=1;" edge="1" parent="1" source="3Sr4pVk2vgEih4nOGjcD-3" target="3Sr4pVk2vgEih4nOGjcD-7">
          <mxGeometry relative="1" as="geometry">
            <Array as="points">
              <mxPoint x="180" y="510" />
            </Array>
          </mxGeometry>
        </mxCell>
        <mxCell id="3Sr4pVk2vgEih4nOGjcD-11" value="Y" style="edgeStyle=orthogonalEdgeStyle;rounded=0;orthogonalLoop=1;jettySize=auto;html=1;startArrow=none;startFill=0;endArrow=classic;endFill=1;" edge="1" parent="1" source="3Sr4pVk2vgEih4nOGjcD-3" target="3Sr4pVk2vgEih4nOGjcD-7">
          <mxGeometry relative="1" as="geometry" />
        </mxCell>
        <mxCell id="3Sr4pVk2vgEih4nOGjcD-3" value="&lt;font style=&quot;font-size: 24px;&quot;&gt;T1&lt;/font&gt;" style="ellipse;whiteSpace=wrap;html=1;aspect=fixed;" vertex="1" parent="1">
          <mxGeometry x="140" y="290" width="80" height="80" as="geometry" />
        </mxCell>
        <mxCell id="3Sr4pVk2vgEih4nOGjcD-6" value="Y" style="edgeStyle=orthogonalEdgeStyle;rounded=0;orthogonalLoop=1;jettySize=auto;html=1;exitX=0.5;exitY=0;exitDx=0;exitDy=0;entryX=0.5;entryY=0;entryDx=0;entryDy=0;startArrow=classic;startFill=1;endArrow=none;endFill=0;" edge="1" parent="1" source="3Sr4pVk2vgEih4nOGjcD-5" target="3Sr4pVk2vgEih4nOGjcD-3">
          <mxGeometry relative="1" as="geometry" />
        </mxCell>
        <mxCell id="3Sr4pVk2vgEih4nOGjcD-9" value="X" style="edgeStyle=orthogonalEdgeStyle;rounded=0;orthogonalLoop=1;jettySize=auto;html=1;entryX=1;entryY=0.5;entryDx=0;entryDy=0;" edge="1" parent="1" source="3Sr4pVk2vgEih4nOGjcD-5" target="3Sr4pVk2vgEih4nOGjcD-7">
          <mxGeometry relative="1" as="geometry">
            <Array as="points">
              <mxPoint x="590" y="510" />
            </Array>
          </mxGeometry>
        </mxCell>
        <mxCell id="3Sr4pVk2vgEih4nOGjcD-5" value="&lt;font style=&quot;font-size: 24px;&quot;&gt;T2&lt;/font&gt;" style="ellipse;whiteSpace=wrap;html=1;aspect=fixed;" vertex="1" parent="1">
          <mxGeometry x="550" y="290" width="80" height="80" as="geometry" />
        </mxCell>
        <mxCell id="3Sr4pVk2vgEih4nOGjcD-7" value="&lt;font style=&quot;font-size: 24px;&quot;&gt;T3&lt;/font&gt;" style="ellipse;whiteSpace=wrap;html=1;aspect=fixed;" vertex="1" parent="1">
          <mxGeometry x="350" y="470" width="80" height="80" as="geometry" />
        </mxCell>
      </root>
    </mxGraphModel>
  </diagram>
</mxfile>
